<?xml version="1.0" standalone="no"?>
<!DOCTYPE svg PUBLIC "-//W3C//DTD SVG 20010904//EN"
 "http://www.w3.org/TR/2001/REC-SVG-20010904/DTD/svg10.dtd">
<svg version="1.0" xmlns="http://www.w3.org/2000/svg"
 width="64.000000pt" height="64.000000pt" viewBox="0 0 64.000000 64.000000"
 preserveAspectRatio="xMidYMid meet">

<g transform="translate(0.000000,64.000000) scale(0.100000,-0.100000)"
fill="#000000" stroke="none">
<path d="M247 544 c-14 -15 -6 -46 13 -51 37 -10 21 -23 -27 -23 -60 0 -111
-25 -140 -69 -18 -27 -23 -48 -23 -102 0 -67 1 -69 25 -69 16 0 25 -6 25 -15
0 -9 -9 -15 -21 -15 -12 0 -23 -8 -26 -20 -3 -11 -14 -20 -24 -20 -15 0 -19
-7 -19 -35 l0 -35 290 0 290 0 0 35 c0 28 -4 35 -19 35 -10 0 -21 9 -24 20 -3
12 -14 20 -26 20 -12 0 -21 6 -21 15 0 9 9 15 25 15 24 0 25 2 25 68 0 112
-55 172 -157 172 -53 0 -71 13 -32 23 15 4 20 12 17 29 -3 21 -8 23 -73 26
-39 1 -74 0 -78 -4z m133 -24 c0 -6 -27 -10 -60 -10 -33 0 -60 4 -60 10 0 6
27 10 60 10 33 0 60 -4 60 -10z m-40 -40 c0 -5 -9 -10 -20 -10 -11 0 -20 5
-20 10 0 6 9 10 20 10 11 0 20 -4 20 -10z m147 -50 c38 -23 63 -67 63 -110 l0
-30 -230 0 -230 0 0 30 c0 43 25 87 63 110 28 17 51 20 167 20 116 0 139 -3
167 -20z m63 -170 c0 -6 -83 -10 -230 -10 -147 0 -230 4 -230 10 0 6 83 10
230 10 147 0 230 -4 230 -10z m-50 -45 c0 -13 -27 -15 -180 -15 -153 0 -180 2
-180 15 0 13 27 15 180 15 153 0 180 -2 180 -15z m50 -45 c0 -6 -83 -10 -230
-10 -147 0 -230 4 -230 10 0 6 83 10 230 10 147 0 230 -4 230 -10z m40 -45 c0
-13 -37 -15 -270 -15 -233 0 -270 2 -270 15 0 13 37 15 270 15 233 0 270 -2
270 -15z"/>
</g>
</svg>
